<svg xmlns="http://www.w3.org/2000/svg" width="1600" height="640" viewBox="0 0 1600 640">
  <defs><linearGradient id="g" x1="0" y1="0" x2="1" y2="1">
    <stop offset="0.00" stop-color="#0d3d38"/><stop offset="0.50" stop-color="#0f7268"/><stop offset="1.00" stop-color="#e0a11a"/>
  </linearGradient>
<filter id="grain"><feTurbulence type="fractalNoise" baseFrequency="0.9" numOctaves="2" stitchTiles="stitch"/><feColorMatrix type="saturate" values="0"/><feComponentTransfer><feFuncA type="linear" slope="0.05"/></feComponentTransfer><feComposite operator="over" in2="SourceGraphic"/></filter></defs>
  <rect width="1600" height="640" fill="url(#g)"/>
  <g><ellipse cx="800.0" cy="282.4" rx="26.4" ry="150" fill="#ffffff" opacity="0.42" transform="rotate(0 800.0 282.4)"/><ellipse cx="808.5" cy="285.9" rx="26.4" ry="150" fill="#ffffff" opacity="0.42" transform="rotate(45 808.5 285.9)"/><ellipse cx="812.0" cy="294.4" rx="26.4" ry="150" fill="#ffffff" opacity="0.42" transform="rotate(90 812.0 294.4)"/><ellipse cx="808.5" cy="302.9" rx="26.4" ry="150" fill="#ffffff" opacity="0.42" transform="rotate(135 808.5 302.9)"/><ellipse cx="800.0" cy="306.4" rx="26.4" ry="150" fill="#ffffff" opacity="0.42" transform="rotate(180 800.0 306.4)"/><ellipse cx="791.5" cy="302.9" rx="26.4" ry="150" fill="#ffffff" opacity="0.42" transform="rotate(225 791.5 302.9)"/><ellipse cx="788.0" cy="294.4" rx="26.4" ry="150" fill="#ffffff" opacity="0.42" transform="rotate(270 788.0 294.4)"/><ellipse cx="791.5" cy="285.9" rx="26.4" ry="150" fill="#ffffff" opacity="0.42" transform="rotate(315 791.5 285.9)"/></g>
  <circle cx="800" cy="294.40000000000003" r="46.5" fill="#ffffff" opacity="0.7"/>
  <text x="800" y="537.6" text-anchor="middle" font-family="Georgia, serif" font-size="96" fill="#ffffff" opacity="0.9"></text>
  <rect width="1600" height="640" filter="url(#grain)" opacity="0.5"/>
</svg>
