<svg xmlns="http://www.w3.org/2000/svg" width="1200" height="630" viewBox="0 0 1200 630">
  <defs><linearGradient id="g" x1="0" y1="0" x2="1" y2="1">
    <stop offset="0.00" stop-color="#2b3a2f"/><stop offset="0.50" stop-color="#6b7f63"/><stop offset="1.00" stop-color="#c98a72"/>
  </linearGradient>
<filter id="grain"><feTurbulence type="fractalNoise" baseFrequency="0.9" numOctaves="2" stitchTiles="stitch"/><feColorMatrix type="saturate" values="0"/><feComponentTransfer><feFuncA type="linear" slope="0.05"/></feComponentTransfer><feComposite operator="over" in2="SourceGraphic"/></filter></defs>
  <rect width="1200" height="630" fill="url(#g)"/>
  <g><ellipse cx="610.1" cy="289.8" rx="22.2" ry="100.8" fill="#f6d9a0" opacity="0.5" transform="rotate(0 610.1 289.8)"/><ellipse cx="607.1" cy="296.9" rx="22.2" ry="100.8" fill="#f6d9a0" opacity="0.5" transform="rotate(45 607.1 296.9)"/><ellipse cx="600.0" cy="299.9" rx="22.2" ry="100.8" fill="#f6d9a0" opacity="0.5" transform="rotate(90 600.0 299.9)"/><ellipse cx="592.9" cy="296.9" rx="22.2" ry="100.8" fill="#f6d9a0" opacity="0.5" transform="rotate(135 592.9 296.9)"/><ellipse cx="589.9" cy="289.8" rx="22.2" ry="100.8" fill="#f6d9a0" opacity="0.5" transform="rotate(180 589.9 289.8)"/><ellipse cx="592.9" cy="282.7" rx="22.2" ry="100.8" fill="#f6d9a0" opacity="0.5" transform="rotate(225 592.9 282.7)"/><ellipse cx="600.0" cy="279.7" rx="22.2" ry="100.8" fill="#f6d9a0" opacity="0.5" transform="rotate(270 600.0 279.7)"/><ellipse cx="607.1" cy="282.7" rx="22.2" ry="100.8" fill="#f6d9a0" opacity="0.5" transform="rotate(315 607.1 282.7)"/></g>
  <circle cx="600" cy="289.8" r="31.5" fill="#f6d9a0" opacity="0.8"/>
  <text x="600" y="516.6" text-anchor="middle" font-family="Georgia, serif" font-size="50" fill="#ffffff" opacity="0.85">Aumevya Yoga</text>
  <rect width="1200" height="630" filter="url(#grain)" opacity="0.5"/>
</svg>
